<mxfile host="app.diagrams.net" modified="2023-10-04T12:54:18.496Z" agent="Mozilla/5.0 (Windows NT 10.0; Win64; x64) AppleWebKit/537.36 (KHTML, like Gecko) Chrome/117.0.0.0 Safari/537.36" version="22.0.2" etag="1RuMUK0BXtzmx1Ol1cX0" type="github">
  <diagram name="第 1 页" id="SOssSo13BPUSeMR2JKeR">
    <mxGraphModel>
      <root>
        <mxCell id="0" />
        <mxCell id="1" parent="0" />
      </root>
    </mxGraphModel>
  </diagram>
</mxfile>
